<?xml version="1.0" encoding="us-ascii" standalone="no"?><svg xmlns="http://www.w3.org/2000/svg" xmlns:xlink="http://www.w3.org/1999/xlink" contentStyleType="text/css" height="1212px" preserveAspectRatio="none" style="width:329px;height:1212px;background:#FFFFFF;" version="1.1" viewBox="0 0 329 1212" width="329px" zoomAndPan="magnify"><defs/><g><!--cluster Instruments.lvlib--><g id="cluster_Instruments.lvlib"><path d="M8.5,129 L140.5,129 A3.75,3.75 0 0 1 143,131.5 L150,151.2969 L319.5,151.2969 A2.5,2.5 0 0 1 322,153.7969 L322,1203.31 A2.5,2.5 0 0 1 319.5,1205.81 L8.5,1205.81 A2.5,2.5 0 0 1 6,1203.31 L6,131.5 A2.5,2.5 0 0 1 8.5,129 " fill="none" style="stroke:#000000;stroke-width:1.5;"/><line style="stroke:#000000;stroke-width:1.5;" x1="6" x2="150" y1="151.2969" y2="151.2969"/><text fill="#000000" font-family="sans-serif" font-size="14" font-weight="bold" lengthAdjust="spacing" textLength="131" x="10" y="143.9951">Instruments.lvlib</text></g><!--cluster Configuration.lvlibp--><g id="cluster_Configuration.lvlibp"><path d="M82.5,6 L236.5,6 A3.75,3.75 0 0 1 239,8.5 L246,28.2969 L246.5,28.2969 A2.5,2.5 0 0 1 249,30.7969 L249,102.5 A2.5,2.5 0 0 1 246.5,105 L82.5,105 A2.5,2.5 0 0 1 80,102.5 L80,8.5 A2.5,2.5 0 0 1 82.5,6 " fill="none" style="stroke:#000000;stroke-width:1.5;"/><line style="stroke:#000000;stroke-width:1.5;" x1="80" x2="246" y1="28.2969" y2="28.2969"/><text fill="#000000" font-family="sans-serif" font-size="14" font-weight="bold" lengthAdjust="spacing" textLength="153" x="84" y="20.9951">Configuration.lvlibp</text></g><!--class Instruments--><g id="elem_Instruments"><rect codeLine="8" fill="#FFFFFF" height="1025.8125" id="Instruments" rx="2.5" ry="2.5" style="stroke:#555555;stroke-width:0.5;" width="285" x="21.5" y="164"/><rect fill="#808080" height="32" rx="2.5" ry="2.5" style="stroke:#808080;stroke-width:0.5;" width="285" x="21.5" y="164"/><rect fill="#808080" height="2.5" style="stroke:#808080;stroke-width:0.5;" width="285" x="21.5" y="193.5"/><rect codeLine="8" fill="none" height="1025.8125" id="Instruments" rx="2.5" ry="2.5" style="stroke:#555555;stroke-width:0.5;" width="285" x="21.5" y="164"/><ellipse cx="118.25" cy="180" fill="#ADD1B2" rx="11" ry="11" style="stroke:#181818;stroke-width:1.0;"/><path d="M121.2188,185.6406 Q120.6406,185.9375 120,186.0781 Q119.3594,186.2344 118.6563,186.2344 Q116.1563,186.2344 114.8281,184.5938 Q113.5156,182.9375 113.5156,179.8125 Q113.5156,176.6875 114.8281,175.0313 Q116.1563,173.375 118.6563,173.375 Q119.3594,173.375 120,173.5313 Q120.6563,173.6875 121.2188,173.9844 L121.2188,176.7031 Q120.5938,176.125 120,175.8594 Q119.4063,175.5781 118.7813,175.5781 Q117.4375,175.5781 116.75,176.6563 Q116.0625,177.7188 116.0625,179.8125 Q116.0625,181.9063 116.75,182.9844 Q117.4375,184.0469 118.7813,184.0469 Q119.4063,184.0469 120,183.7813 Q120.5938,183.5 121.2188,182.9219 L121.2188,185.6406 Z " fill="#000000"/><text fill="#000000" font-family="sans-serif" font-size="14" lengthAdjust="spacing" textLength="83" x="138.75" y="184.8467">Instruments</text><line style="stroke:#555555;stroke-width:0.5;" x1="22.5" x2="305.5" y1="196" y2="196"/><ellipse cx="32.5" cy="209.6484" fill="none" rx="3" ry="3" style="stroke:#038048;stroke-width:1.0;"/><text fill="#000000" font-family="sans-serif" font-size="14" lengthAdjust="spacing" textLength="120" x="41.5" y="212.9951">Resource : String</text><ellipse cx="32.5" cy="225.9453" fill="none" rx="3" ry="3" style="stroke:#038048;stroke-width:1.0;"/><text fill="#000000" font-family="sans-serif" font-size="14" lengthAdjust="spacing" textLength="138" x="41.5" y="229.292">Simulated : Boolean</text><rect fill="none" height="6" style="stroke:#C82930;stroke-width:1.0;" width="6" x="29.5" y="239.2422"/><text fill="#000000" font-family="sans-serif" font-size="14" lengthAdjust="spacing" textLength="156" x="41.5" y="245.5889">InstrEnabled : Boolean</text><rect fill="none" height="6" style="stroke:#C82930;stroke-width:1.0;" width="6" x="29.5" y="255.5391"/><text fill="#000000" font-family="sans-serif" font-size="14" lengthAdjust="spacing" textLength="72" x="41.5" y="261.8857">Panel : I32</text><ellipse cx="32.5" cy="274.8359" fill="none" rx="3" ry="3" style="stroke:#038048;stroke-width:1.0;"/><text fill="#000000" font-family="sans-serif" font-size="14" lengthAdjust="spacing" textLength="89" x="41.5" y="278.1826">Poll(ms) : I32</text><rect fill="none" height="6" style="stroke:#C82930;stroke-width:1.0;" width="6" x="29.5" y="288.1328"/><text fill="#000000" font-family="sans-serif" font-size="14" lengthAdjust="spacing" textLength="191" x="41.5" y="294.4795">CalibrationDue : Timestamp</text><rect fill="none" height="6" style="stroke:#C82930;stroke-width:1.0;" width="6" x="29.5" y="304.4297"/><text fill="#000000" font-family="sans-serif" font-size="14" lengthAdjust="spacing" textLength="206" x="41.5" y="310.7764">dt(s) - Unused? : Double Float</text><rect fill="none" height="6" style="stroke:#C82930;stroke-width:1.0;" width="6" x="29.5" y="320.7266"/><text fill="#000000" font-family="sans-serif" font-size="14" lengthAdjust="spacing" textLength="233" x="41.5" y="327.0732">Panel Instruments : Array of String</text><rect fill="none" height="6" style="stroke:#C82930;stroke-width:1.0;" width="6" x="29.5" y="337.0234"/><text fill="#000000" font-family="sans-serif" font-size="14" lengthAdjust="spacing" textLength="179" x="41.5" y="343.3701">ActiveDevice : kLVObjRing</text><rect fill="none" height="6" style="stroke:#C82930;stroke-width:1.0;" width="6" x="29.5" y="353.3203"/><text fill="#000000" font-family="sans-serif" font-size="14" lengthAdjust="spacing" textLength="256" x="41.5" y="359.667">WaveformRef : kLVObjWaveformChart</text><rect fill="none" height="6" style="stroke:#C82930;stroke-width:1.0;" width="6" x="29.5" y="369.6172"/><text fill="#000000" font-family="sans-serif" font-size="14" lengthAdjust="spacing" textLength="259" x="41.5" y="375.9639">SnapshotRef : kLVObjWaveformGraph</text><rect fill="none" height="6" style="stroke:#C82930;stroke-width:1.0;" width="6" x="29.5" y="385.9141"/><text fill="#000000" font-family="sans-serif" font-size="14" lengthAdjust="spacing" textLength="222" x="41.5" y="392.2607">TableRefnum : kLVObjMCListbox</text><ellipse cx="32.5" cy="405.2109" fill="none" rx="3" ry="3" style="stroke:#038048;stroke-width:1.0;"/><text fill="#000000" font-family="sans-serif" font-size="14" lengthAdjust="spacing" textLength="205" x="41.5" y="408.5576">Measured : Array of Waveform</text><ellipse cx="32.5" cy="421.5078" fill="none" rx="3" ry="3" style="stroke:#038048;stroke-width:1.0;"/><text fill="#000000" font-family="sans-serif" font-size="14" lengthAdjust="spacing" textLength="202" x="41.5" y="424.8545">Snapshot : Array of Waveform</text><rect fill="none" height="6" style="stroke:#C82930;stroke-width:1.0;" width="6" x="29.5" y="434.8047"/><text fill="#000000" font-family="sans-serif" font-size="14" lengthAdjust="spacing" textLength="174" x="41.5" y="441.1514">MeasureNotifier : NoType</text><line style="stroke:#555555;stroke-width:0.5;" x1="22.5" x2="305.5" y1="448.4531" y2="448.4531"/><ellipse cx="32.5" cy="462.1016" fill="#84BE84" rx="3" ry="3" style="stroke:#038048;stroke-width:1.0;"/><text fill="#000000" font-family="sans-serif" font-size="14" lengthAdjust="spacing" text-decoration="underline" textLength="172" x="41.5" y="465.4482">Command with Logging()</text><ellipse cx="32.5" cy="478.3984" fill="#84BE84" rx="3" ry="3" style="stroke:#038048;stroke-width:1.0;"/><text fill="#000000" font-family="sans-serif" font-size="14" lengthAdjust="spacing" text-decoration="underline" textLength="152" x="41.5" y="481.7451">Create Event Cluster()</text><ellipse cx="32.5" cy="494.6953" fill="#84BE84" rx="3" ry="3" style="stroke:#038048;stroke-width:1.0;"/><text fill="#000000" font-family="sans-serif" font-size="14" lengthAdjust="spacing" text-decoration="underline" textLength="76" x="41.5" y="498.042">Limit Test()</text><ellipse cx="32.5" cy="510.9922" fill="#84BE84" rx="3" ry="3" style="stroke:#038048;stroke-width:1.0;"/><text fill="#000000" font-family="sans-serif" font-size="14" lengthAdjust="spacing" text-decoration="underline" textLength="124" x="41.5" y="514.3389">Schedule Polling()</text><ellipse cx="32.5" cy="527.2891" fill="#84BE84" rx="3" ry="3" style="stroke:#038048;stroke-width:1.0;"/><text fill="#000000" font-family="sans-serif" font-size="14" lengthAdjust="spacing" text-decoration="underline" textLength="91" x="41.5" y="530.6357">Stop Polling()</text><ellipse cx="32.5" cy="543.5859" fill="#84BE84" rx="3" ry="3" style="stroke:#038048;stroke-width:1.0;"/><text fill="#000000" font-family="sans-serif" font-size="14" lengthAdjust="spacing" text-decoration="underline" textLength="127" x="41.5" y="546.9326">Switch Data View()</text><ellipse cx="32.5" cy="559.8828" fill="#84BE84" rx="3" ry="3" style="stroke:#038048;stroke-width:1.0;"/><text fill="#000000" font-family="sans-serif" font-size="14" lengthAdjust="spacing" text-decoration="underline" textLength="174" x="41.5" y="563.2295">Trigger Instrument View()</text><rect fill="#F24D5C" height="6" style="stroke:#C82930;stroke-width:1.0;" width="6" x="29.5" y="573.1797"/><text fill="#000000" font-family="sans-serif" font-size="14" lengthAdjust="spacing" text-decoration="underline" textLength="125" x="41.5" y="579.5264">Event from Ary I8()</text><rect fill="#F24D5C" height="6" style="stroke:#C82930;stroke-width:1.0;" width="6" x="29.5" y="589.4766"/><text fill="#000000" font-family="sans-serif" font-size="14" lengthAdjust="spacing" text-decoration="underline" textLength="134" x="41.5" y="595.8232">Event from Ary I16()</text><rect fill="#F24D5C" height="6" style="stroke:#C82930;stroke-width:1.0;" width="6" x="29.5" y="605.7734"/><text fill="#000000" font-family="sans-serif" font-size="14" lengthAdjust="spacing" text-decoration="underline" textLength="134" x="41.5" y="612.1201">Event from Ary I32()</text><rect fill="#F24D5C" height="6" style="stroke:#C82930;stroke-width:1.0;" width="6" x="29.5" y="622.0703"/><text fill="#000000" font-family="sans-serif" font-size="14" lengthAdjust="spacing" text-decoration="underline" textLength="134" x="41.5" y="628.417">Event from Ary I64()</text><rect fill="#F24D5C" height="6" style="stroke:#C82930;stroke-width:1.0;" width="6" x="29.5" y="638.3672"/><text fill="#000000" font-family="sans-serif" font-size="14" lengthAdjust="spacing" text-decoration="underline" textLength="132" x="41.5" y="644.7139">Event from Ary U8()</text><rect fill="#F24D5C" height="6" style="stroke:#C82930;stroke-width:1.0;" width="6" x="29.5" y="654.6641"/><text fill="#000000" font-family="sans-serif" font-size="14" lengthAdjust="spacing" text-decoration="underline" textLength="141" x="41.5" y="661.0107">Event from Ary U16()</text><rect fill="#F24D5C" height="6" style="stroke:#C82930;stroke-width:1.0;" width="6" x="29.5" y="670.9609"/><text fill="#000000" font-family="sans-serif" font-size="14" lengthAdjust="spacing" text-decoration="underline" textLength="141" x="41.5" y="677.3076">Event from Ary U32()</text><rect fill="#F24D5C" height="6" style="stroke:#C82930;stroke-width:1.0;" width="6" x="29.5" y="687.2578"/><text fill="#000000" font-family="sans-serif" font-size="14" lengthAdjust="spacing" text-decoration="underline" textLength="141" x="41.5" y="693.6045">Event from Ary U64()</text><rect fill="#F24D5C" height="6" style="stroke:#C82930;stroke-width:1.0;" width="6" x="29.5" y="703.5547"/><text fill="#000000" font-family="sans-serif" font-size="14" lengthAdjust="spacing" text-decoration="underline" textLength="145" x="41.5" y="709.9014">Event from Boolean()</text><rect fill="#F24D5C" height="6" style="stroke:#C82930;stroke-width:1.0;" width="6" x="29.5" y="719.8516"/><text fill="#000000" font-family="sans-serif" font-size="14" lengthAdjust="spacing" text-decoration="underline" textLength="141" x="41.5" y="726.1982">Event from DBL Ary()</text><rect fill="#F24D5C" height="6" style="stroke:#C82930;stroke-width:1.0;" width="6" x="29.5" y="736.1484"/><text fill="#000000" font-family="sans-serif" font-size="14" lengthAdjust="spacing" text-decoration="underline" textLength="116" x="41.5" y="742.4951">Event from DBL()</text><rect fill="#F24D5C" height="6" style="stroke:#C82930;stroke-width:1.0;" width="6" x="29.5" y="752.4453"/><text fill="#000000" font-family="sans-serif" font-size="14" lengthAdjust="spacing" text-decoration="underline" textLength="128" x="41.5" y="758.792">Event from Enum()</text><rect fill="#F24D5C" height="6" style="stroke:#C82930;stroke-width:1.0;" width="6" x="29.5" y="768.7422"/><text fill="#000000" font-family="sans-serif" font-size="14" lengthAdjust="spacing" text-decoration="underline" textLength="100" x="41.5" y="775.0889">Event from I8()</text><rect fill="#F24D5C" height="6" style="stroke:#C82930;stroke-width:1.0;" width="6" x="29.5" y="785.0391"/><text fill="#000000" font-family="sans-serif" font-size="14" lengthAdjust="spacing" text-decoration="underline" textLength="109" x="41.5" y="791.3857">Event from I16()</text><rect fill="#F24D5C" height="6" style="stroke:#C82930;stroke-width:1.0;" width="6" x="29.5" y="801.3359"/><text fill="#000000" font-family="sans-serif" font-size="14" lengthAdjust="spacing" text-decoration="underline" textLength="109" x="41.5" y="807.6826">Event from I32()</text><rect fill="#F24D5C" height="6" style="stroke:#C82930;stroke-width:1.0;" width="6" x="29.5" y="817.6328"/><text fill="#000000" font-family="sans-serif" font-size="14" lengthAdjust="spacing" text-decoration="underline" textLength="109" x="41.5" y="823.9795">Event from I64()</text><rect fill="#F24D5C" height="6" style="stroke:#C82930;stroke-width:1.0;" width="6" x="29.5" y="833.9297"/><text fill="#000000" font-family="sans-serif" font-size="14" lengthAdjust="spacing" text-decoration="underline" textLength="119" x="41.5" y="840.2764">Event from Ring()</text><rect fill="#F24D5C" height="6" style="stroke:#C82930;stroke-width:1.0;" width="6" x="29.5" y="850.2266"/><text fill="#000000" font-family="sans-serif" font-size="14" lengthAdjust="spacing" text-decoration="underline" textLength="128" x="41.5" y="856.5732">Event from String()</text><rect fill="#F24D5C" height="6" style="stroke:#C82930;stroke-width:1.0;" width="6" x="29.5" y="866.5234"/><text fill="#000000" font-family="sans-serif" font-size="14" lengthAdjust="spacing" text-decoration="underline" textLength="107" x="41.5" y="872.8701">Event from U8()</text><rect fill="#F24D5C" height="6" style="stroke:#C82930;stroke-width:1.0;" width="6" x="29.5" y="882.8203"/><text fill="#000000" font-family="sans-serif" font-size="14" lengthAdjust="spacing" text-decoration="underline" textLength="116" x="41.5" y="889.167">Event from U16()</text><rect fill="#F24D5C" height="6" style="stroke:#C82930;stroke-width:1.0;" width="6" x="29.5" y="899.1172"/><text fill="#000000" font-family="sans-serif" font-size="14" lengthAdjust="spacing" text-decoration="underline" textLength="116" x="41.5" y="905.4639">Event from U32()</text><rect fill="#F24D5C" height="6" style="stroke:#C82930;stroke-width:1.0;" width="6" x="29.5" y="915.4141"/><text fill="#000000" font-family="sans-serif" font-size="14" lengthAdjust="spacing" text-decoration="underline" textLength="116" x="41.5" y="921.7607">Event from U64()</text><rect fill="#F24D5C" height="6" style="stroke:#C82930;stroke-width:1.0;" width="6" x="29.5" y="931.7109"/><text fill="#000000" font-family="sans-serif" font-size="14" lengthAdjust="spacing" text-decoration="underline" textLength="123" x="41.5" y="938.0576">Verify Calibration()</text><ellipse cx="32.5" cy="951.0078" fill="#84BE84" rx="3" ry="3" style="stroke:#038048;stroke-width:1.0;"/><text fill="#000000" font-family="sans-serif" font-size="14" lengthAdjust="spacing" textLength="105" x="41.5" y="954.3545">Request Data()</text><ellipse cx="32.5" cy="967.3047" fill="#84BE84" rx="3" ry="3" style="stroke:#038048;stroke-width:1.0;"/><text fill="#000000" font-family="sans-serif" font-size="14" lengthAdjust="spacing" textLength="121" x="41.5" y="970.6514">Send Command()</text><ellipse cx="32.5" cy="983.6016" fill="#84BE84" rx="3" ry="3" style="stroke:#038048;stroke-width:1.0;"/><text fill="#000000" font-family="sans-serif" font-size="14" lengthAdjust="spacing" textLength="64" x="41.5" y="986.9482">Initialize()</text><polygon fill="#FFFF44" points="32.5,994.8984,36.5,998.8984,32.5,1002.8984,28.5,998.8984" style="stroke:#B38D22;stroke-width:1.0;"/><text fill="#000000" font-family="sans-serif" font-size="14" lengthAdjust="spacing" textLength="83" x="41.5" y="1003.2451">Actor Core()</text><ellipse cx="32.5" cy="1016.1953" fill="#84BE84" rx="3" ry="3" style="stroke:#038048;stroke-width:1.0;"/><text fill="#000000" font-family="sans-serif" font-size="14" lengthAdjust="spacing" textLength="69" x="41.5" y="1019.542">Connect()</text><ellipse cx="32.5" cy="1032.4922" fill="#84BE84" rx="3" ry="3" style="stroke:#038048;stroke-width:1.0;"/><text fill="#000000" font-family="sans-serif" font-size="14" lengthAdjust="spacing" textLength="89" x="41.5" y="1035.8389">Disconnect()</text><ellipse cx="32.5" cy="1048.7891" fill="#84BE84" rx="3" ry="3" style="stroke:#038048;stroke-width:1.0;"/><text fill="#000000" font-family="sans-serif" font-size="14" lengthAdjust="spacing" textLength="175" x="41.5" y="1052.1357">Link Control References()</text><ellipse cx="32.5" cy="1065.0859" fill="#84BE84" rx="3" ry="3" style="stroke:#038048;stroke-width:1.0;"/><text fill="#000000" font-family="sans-serif" font-size="14" lengthAdjust="spacing" textLength="70" x="41.5" y="1068.4326">Measure()</text><ellipse cx="32.5" cy="1081.3828" fill="#84BE84" rx="3" ry="3" style="stroke:#038048;stroke-width:1.0;"/><text fill="#000000" font-family="sans-serif" font-size="14" lengthAdjust="spacing" textLength="104" x="41.5" y="1084.7295">Post-Register()</text><ellipse cx="32.5" cy="1097.6797" fill="#84BE84" rx="3" ry="3" style="stroke:#038048;stroke-width:1.0;"/><text fill="#000000" font-family="sans-serif" font-size="14" lengthAdjust="spacing" textLength="76" x="41.5" y="1101.0264">Power Off()</text><ellipse cx="32.5" cy="1113.9766" fill="#84BE84" rx="3" ry="3" style="stroke:#038048;stroke-width:1.0;"/><text fill="#000000" font-family="sans-serif" font-size="14" lengthAdjust="spacing" textLength="74" x="41.5" y="1117.3232">Pre-Actor()</text><ellipse cx="32.5" cy="1130.2734" fill="#84BE84" rx="3" ry="3" style="stroke:#038048;stroke-width:1.0;"/><text fill="#000000" font-family="sans-serif" font-size="14" lengthAdjust="spacing" textLength="106" x="41.5" y="1133.6201">Self Configure()</text><ellipse cx="32.5" cy="1146.5703" fill="#84BE84" rx="3" ry="3" style="stroke:#038048;stroke-width:1.0;"/><text fill="#000000" font-family="sans-serif" font-size="14" lengthAdjust="spacing" textLength="70" x="41.5" y="1149.917">Self Test()</text><ellipse cx="32.5" cy="1162.8672" fill="#84BE84" rx="3" ry="3" style="stroke:#038048;stroke-width:1.0;"/><text fill="#000000" font-family="sans-serif" font-size="14" lengthAdjust="spacing" textLength="80" x="41.5" y="1166.2139">Shutdown()</text><ellipse cx="32.5" cy="1179.1641" fill="#84BE84" rx="3" ry="3" style="stroke:#038048;stroke-width:1.0;"/><text fill="#000000" font-family="sans-serif" font-size="14" lengthAdjust="spacing" textLength="114" x="41.5" y="1182.5107">Take Snapshot()</text></g><!--class Configuration--><g id="elem_Configuration"><rect fill="#FFFFFF" height="48" id="Configuration" rx="2.5" ry="2.5" style="stroke:#555555;stroke-width:0.5;" width="124" x="102" y="41"/><rect fill="#808080" height="32" rx="2.5" ry="2.5" style="stroke:#808080;stroke-width:0.5;" width="124" x="102" y="41"/><rect fill="#808080" height="2.5" style="stroke:#808080;stroke-width:0.5;" width="124" x="102" y="70.5"/><rect fill="none" height="48" id="Configuration" rx="2.5" ry="2.5" style="stroke:#555555;stroke-width:0.5;" width="124" x="102" y="41"/><ellipse cx="117" cy="57" fill="#ADD1B2" rx="11" ry="11" style="stroke:#181818;stroke-width:1.0;"/><path d="M119.9688,62.6406 Q119.3906,62.9375 118.75,63.0781 Q118.1094,63.2344 117.4063,63.2344 Q114.9063,63.2344 113.5781,61.5938 Q112.2656,59.9375 112.2656,56.8125 Q112.2656,53.6875 113.5781,52.0313 Q114.9063,50.375 117.4063,50.375 Q118.1094,50.375 118.75,50.5313 Q119.4063,50.6875 119.9688,50.9844 L119.9688,53.7031 Q119.3438,53.125 118.75,52.8594 Q118.1563,52.5781 117.5313,52.5781 Q116.1875,52.5781 115.5,53.6563 Q114.8125,54.7188 114.8125,56.8125 Q114.8125,58.9063 115.5,59.9844 Q116.1875,61.0469 117.5313,61.0469 Q118.1563,61.0469 118.75,60.7813 Q119.3438,60.5 119.9688,59.9219 L119.9688,62.6406 Z " fill="#000000"/><text fill="#000000" font-family="sans-serif" font-size="14" lengthAdjust="spacing" textLength="92" x="131" y="61.8467">Configuration</text><line style="stroke:#555555;stroke-width:0.5;" x1="103" x2="225" y1="73" y2="73"/><line style="stroke:#555555;stroke-width:0.5;" x1="103" x2="225" y1="81" y2="81"/></g><!--reverse link Configuration to Instruments--><g id="link_Configuration_Instruments"><path codeLine="71" d="M164,107.16 C164,124.35 164,132.21 164,163.64 " fill="none" id="Configuration-backto-Instruments" style="stroke:#181818;stroke-width:1.0;"/><polygon fill="none" points="164,89.16,158,107.16,170,107.16,164,89.16" style="stroke:#181818;stroke-width:1.0;"/></g><!--SRC=[ZPRTRzem4C3VyrTOzANLbAbhjwf2awOMsWs9jeX0zsoII-BXs9djm1Zh_xvB6iX7Gt4G3zpzk6-Vey4GGHFGAVN1WvGgQgGYVKSlcSX_9MJ0gTQtr5z6IcOY64YEmCbzyRp1f0f0bSYNucaZzrAO4ZWldZRm0oZQUEFm-Zp_E3NQo1I_P26DaGa9c0BVC2aSFxT2UYEXZSeI44P_v2lE5lsQf4UspZPam8CNyc4AMcRA1z8ddb5CH9NAOqd6gO40TRTISg1YhtGBUtU2BdYtVa85S5ICBYygYnF9-McYprfoTq0nHAm-PZ3Cyb1c3DjYQ99MJ61EyOykcOjCG_0DeQ7Cq3kvvvAQjkDQkaZUA4KtH8Rj5DqRhDeAXh1YHGMMu-UdnQzf0_b9Ln1AbKmXt1CxsI2cgkRQ4pJLiJHTw7T5qxX2PtdXa1DPiaSV1cEcpKB-gGhs05HdggZmFeUTnLgZIh_lKcvfwr4QXYASS_8ePviKd2rMsZ3_XMmJCB7CBGvaab0Ha3KpCHdBACAId9vraWfmHCZT2akDCvnf0wgR7BE46JB3ldRhFJ-68CE6vbDoq9-NJ_xx10RjnsH83INF3DRTr4onAC8gL8Do67PVimiL7hKRjI6ZQpliqvKTTtbXnrrzjkBcTk7DBSERMuOtjmYlN1D7kU7jEBTfmnrbxl2C7OKiMchJJfjMshHnUcYwwz3hCZkAMOo3pIZOZC714NW6nS8DgUtvdDiVnYdypd0l56UseV00br2vZ1gAaM26eRM_K1UVu3x7-t8WLKECwqm8l20RiY7JVeTupCGI3GYZ92Uue461y44tc7AJDcGJgOqxXOZj5c1DiyOzynI6JQa2juYsbIyFS-yXYzeE2jLkUrRIE3E1N3VBEQDB8BjB0JNEYzFR6IsA__fEaFORmXxv-izrZxqxE8xp7m00]--></g></svg>