<?xml version="1.0" encoding="us-ascii" standalone="no"?><svg xmlns="http://www.w3.org/2000/svg" xmlns:xlink="http://www.w3.org/1999/xlink" contentStyleType="text/css" height="300px" preserveAspectRatio="none" style="width:245px;height:300px;background:#FFFFFF;" version="1.1" viewBox="0 0 245 300" width="245px" zoomAndPan="magnify"><defs/><g><!--cluster Instruments.lvlib--><g id="cluster_Instruments.lvlib"><path d="M8.5,129 L140.5,129 A3.75,3.75 0 0 1 143,131.5 L150,151.2969 L221.5,151.2969 A2.5,2.5 0 0 1 224,153.7969 L224,290.69 A2.5,2.5 0 0 1 221.5,293.19 L8.5,293.19 A2.5,2.5 0 0 1 6,290.69 L6,131.5 A2.5,2.5 0 0 1 8.5,129 " fill="none" style="stroke:#000000;stroke-width:1.5;"/><line style="stroke:#000000;stroke-width:1.5;" x1="6" x2="150" y1="151.2969" y2="151.2969"/><text fill="#000000" font-family="sans-serif" font-size="14" font-weight="bold" lengthAdjust="spacing" textLength="131" x="10" y="143.9951">Instruments.lvlib</text></g><!--cluster Actor Framework.lvlibp--><g id="cluster_Actor Framework.lvlibp"><path d="M41.5,6 L225.5,6 A3.75,3.75 0 0 1 228,8.5 L235,28.2969 L235.5,28.2969 A2.5,2.5 0 0 1 238,30.7969 L238,102.5 A2.5,2.5 0 0 1 235.5,105 L41.5,105 A2.5,2.5 0 0 1 39,102.5 L39,8.5 A2.5,2.5 0 0 1 41.5,6 " fill="none" style="stroke:#000000;stroke-width:1.5;"/><line style="stroke:#000000;stroke-width:1.5;" x1="39" x2="235" y1="28.2969" y2="28.2969"/><text fill="#000000" font-family="sans-serif" font-size="14" font-weight="bold" lengthAdjust="spacing" textLength="183" x="43" y="20.9951">Actor Framework.lvlibp</text></g><!--class Send Command Msg--><g id="elem_Send Command Msg"><rect codeLine="8" fill="#FFFFFF" height="113.1875" id="Send Command Msg" rx="2.5" ry="2.5" style="stroke:#555555;stroke-width:0.5;" width="187" x="21.5" y="164"/><rect fill="#808080" height="32" rx="2.5" ry="2.5" style="stroke:#808080;stroke-width:0.5;" width="187" x="21.5" y="164"/><rect fill="#808080" height="2.5" style="stroke:#808080;stroke-width:0.5;" width="187" x="21.5" y="193.5"/><rect codeLine="8" fill="none" height="113.1875" id="Send Command Msg" rx="2.5" ry="2.5" style="stroke:#555555;stroke-width:0.5;" width="187" x="21.5" y="164"/><ellipse cx="41.45" cy="180" fill="#ADD1B2" rx="11" ry="11" style="stroke:#181818;stroke-width:1.0;"/><path d="M44.4188,185.6406 Q43.8406,185.9375 43.2,186.0781 Q42.5594,186.2344 41.8563,186.2344 Q39.3563,186.2344 38.0281,184.5938 Q36.7156,182.9375 36.7156,179.8125 Q36.7156,176.6875 38.0281,175.0313 Q39.3563,173.375 41.8563,173.375 Q42.5594,173.375 43.2,173.5313 Q43.8563,173.6875 44.4188,173.9844 L44.4188,176.7031 Q43.7938,176.125 43.2,175.8594 Q42.6063,175.5781 41.9813,175.5781 Q40.6375,175.5781 39.95,176.6563 Q39.2625,177.7188 39.2625,179.8125 Q39.2625,181.9063 39.95,182.9844 Q40.6375,184.0469 41.9813,184.0469 Q42.6063,184.0469 43.2,183.7813 Q43.7938,183.5 44.4188,182.9219 L44.4188,185.6406 Z " fill="#000000"/><text fill="#000000" font-family="sans-serif" font-size="14" lengthAdjust="spacing" textLength="144" x="56.55" y="184.8467">Send Command Msg</text><line style="stroke:#555555;stroke-width:0.5;" x1="22.5" x2="207.5" y1="196" y2="196"/><rect fill="none" height="6" style="stroke:#C82930;stroke-width:1.0;" width="6" x="29.5" y="206.6484"/><text fill="#000000" font-family="sans-serif" font-size="14" lengthAdjust="spacing" textLength="124" x="41.5" y="212.9951">Command : String</text><rect fill="none" height="6" style="stroke:#C82930;stroke-width:1.0;" width="6" x="29.5" y="222.9453"/><text fill="#000000" font-family="sans-serif" font-size="14" lengthAdjust="spacing" textLength="98" x="41.5" y="229.292">Value : Variant</text><line style="stroke:#555555;stroke-width:0.5;" x1="22.5" x2="207.5" y1="236.5938" y2="236.5938"/><ellipse cx="32.5" cy="250.2422" fill="#84BE84" rx="3" ry="3" style="stroke:#038048;stroke-width:1.0;"/><text fill="#000000" font-family="sans-serif" font-size="14" lengthAdjust="spacing" text-decoration="underline" textLength="161" x="41.5" y="253.5889">Send Send Command()</text><ellipse cx="32.5" cy="266.5391" fill="#84BE84" rx="3" ry="3" style="stroke:#038048;stroke-width:1.0;"/><text fill="#000000" font-family="sans-serif" font-size="14" lengthAdjust="spacing" textLength="30" x="41.5" y="269.8857">Do()</text></g><!--class Message--><g id="elem_Message"><rect fill="#FFFFFF" height="48" id="Message" rx="2.5" ry="2.5" style="stroke:#555555;stroke-width:0.5;" width="95" x="67.5" y="41"/><rect fill="#808080" height="32" rx="2.5" ry="2.5" style="stroke:#808080;stroke-width:0.5;" width="95" x="67.5" y="41"/><rect fill="#808080" height="2.5" style="stroke:#808080;stroke-width:0.5;" width="95" x="67.5" y="70.5"/><rect fill="none" height="48" id="Message" rx="2.5" ry="2.5" style="stroke:#555555;stroke-width:0.5;" width="95" x="67.5" y="41"/><ellipse cx="82.5" cy="57" fill="#ADD1B2" rx="11" ry="11" style="stroke:#181818;stroke-width:1.0;"/><path d="M85.4688,62.6406 Q84.8906,62.9375 84.25,63.0781 Q83.6094,63.2344 82.9063,63.2344 Q80.4063,63.2344 79.0781,61.5938 Q77.7656,59.9375 77.7656,56.8125 Q77.7656,53.6875 79.0781,52.0313 Q80.4063,50.375 82.9063,50.375 Q83.6094,50.375 84.25,50.5313 Q84.9063,50.6875 85.4688,50.9844 L85.4688,53.7031 Q84.8438,53.125 84.25,52.8594 Q83.6563,52.5781 83.0313,52.5781 Q81.6875,52.5781 81,53.6563 Q80.3125,54.7188 80.3125,56.8125 Q80.3125,58.9063 81,59.9844 Q81.6875,61.0469 83.0313,61.0469 Q83.6563,61.0469 84.25,60.7813 Q84.8438,60.5 85.4688,59.9219 L85.4688,62.6406 Z " fill="#000000"/><text fill="#000000" font-family="sans-serif" font-size="14" lengthAdjust="spacing" textLength="63" x="96.5" y="61.8467">Message</text><line style="stroke:#555555;stroke-width:0.5;" x1="68.5" x2="161.5" y1="73" y2="73"/><line style="stroke:#555555;stroke-width:0.5;" x1="68.5" x2="161.5" y1="81" y2="81"/></g><!--reverse link Message to Send Command Msg--><g id="link_Message_Send Command Msg"><path codeLine="15" d="M115,107.33 C115,127.05 115,138.11 115,163.78 " fill="none" id="Message-backto-Send Command Msg" style="stroke:#181818;stroke-width:1.0;"/><polygon fill="none" points="115,89.33,109,107.33,121,107.33,115,89.33" style="stroke:#181818;stroke-width:1.0;"/></g><!--SRC=[ZP11IyGm48Nl-HL3lIXIsOiWnOjMYXxsLDZxR3BMq2HJagaUQl-xQLtPPVVY2s6OcO-NHn891FIK1jJKqe0HXIDKAlKsB9s7sc5ApwZxBl8OJCqk0rVDgWkCew5uGEvNdICD1pa0crNdm2jXzhXuy66p77L22m_vmfv5s8EnaRHO3aelBb2yXIHnz1GatRbFP_TLIy50pTvZhjlK5J2fwTsICpEKV_CAMeasTCVD3jr8URx3Q368cfAWM3t3v4a-E2Etg_Ef_VMDEcvVEBTgLiMJNZwtoU7fYsF_6skejfGITbJ0utTP_YkuKke7]--></g></svg>