<?xml version="1.0" encoding="us-ascii" standalone="no"?><svg xmlns="http://www.w3.org/2000/svg" xmlns:xlink="http://www.w3.org/1999/xlink" contentStyleType="text/css" height="316px" preserveAspectRatio="none" style="width:234px;height:316px;background:#FFFFFF;" version="1.1" viewBox="0 0 234 316" width="234px" zoomAndPan="magnify"><defs/><g><!--cluster Instruments.lvlib--><g id="cluster_Instruments.lvlib"><path d="M8.5,129 L140.5,129 A3.75,3.75 0 0 1 143,131.5 L150,151.2969 L207.5,151.2969 A2.5,2.5 0 0 1 210,153.7969 L210,306.98 A2.5,2.5 0 0 1 207.5,309.48 L8.5,309.48 A2.5,2.5 0 0 1 6,306.98 L6,131.5 A2.5,2.5 0 0 1 8.5,129 " fill="none" style="stroke:#000000;stroke-width:1.5;"/><line style="stroke:#000000;stroke-width:1.5;" x1="6" x2="150" y1="151.2969" y2="151.2969"/><text fill="#000000" font-family="sans-serif" font-size="14" font-weight="bold" lengthAdjust="spacing" textLength="131" x="10" y="143.9951">Instruments.lvlib</text></g><!--cluster Actor Framework.lvlibp--><g id="cluster_Actor Framework.lvlibp"><path d="M30.5,6 L214.5,6 A3.75,3.75 0 0 1 217,8.5 L224,28.2969 L224.5,28.2969 A2.5,2.5 0 0 1 227,30.7969 L227,102.5 A2.5,2.5 0 0 1 224.5,105 L30.5,105 A2.5,2.5 0 0 1 28,102.5 L28,8.5 A2.5,2.5 0 0 1 30.5,6 " fill="none" style="stroke:#000000;stroke-width:1.5;"/><line style="stroke:#000000;stroke-width:1.5;" x1="28" x2="224" y1="28.2969" y2="28.2969"/><text fill="#000000" font-family="sans-serif" font-size="14" font-weight="bold" lengthAdjust="spacing" textLength="183" x="32" y="20.9951">Actor Framework.lvlibp</text></g><!--class Request Data Msg--><g id="elem_Request Data Msg"><rect codeLine="8" fill="#FFFFFF" height="129.4844" id="Request Data Msg" rx="2.5" ry="2.5" style="stroke:#555555;stroke-width:0.5;" width="171" x="22.5" y="164"/><rect fill="#808080" height="32" rx="2.5" ry="2.5" style="stroke:#808080;stroke-width:0.5;" width="171" x="22.5" y="164"/><rect fill="#808080" height="2.5" style="stroke:#808080;stroke-width:0.5;" width="171" x="22.5" y="193.5"/><rect codeLine="8" fill="none" height="129.4844" id="Request Data Msg" rx="2.5" ry="2.5" style="stroke:#555555;stroke-width:0.5;" width="171" x="22.5" y="164"/><ellipse cx="42.45" cy="180" fill="#ADD1B2" rx="11" ry="11" style="stroke:#181818;stroke-width:1.0;"/><path d="M45.4188,185.6406 Q44.8406,185.9375 44.2,186.0781 Q43.5594,186.2344 42.8563,186.2344 Q40.3563,186.2344 39.0281,184.5938 Q37.7156,182.9375 37.7156,179.8125 Q37.7156,176.6875 39.0281,175.0313 Q40.3563,173.375 42.8563,173.375 Q43.5594,173.375 44.2,173.5313 Q44.8563,173.6875 45.4188,173.9844 L45.4188,176.7031 Q44.7938,176.125 44.2,175.8594 Q43.6063,175.5781 42.9813,175.5781 Q41.6375,175.5781 40.95,176.6563 Q40.2625,177.7188 40.2625,179.8125 Q40.2625,181.9063 40.95,182.9844 Q41.6375,184.0469 42.9813,184.0469 Q43.6063,184.0469 44.2,183.7813 Q44.7938,183.5 45.4188,182.9219 L45.4188,185.6406 Z " fill="#000000"/><text fill="#000000" font-family="sans-serif" font-size="14" lengthAdjust="spacing" textLength="128" x="57.55" y="184.8467">Request Data Msg</text><line style="stroke:#555555;stroke-width:0.5;" x1="23.5" x2="192.5" y1="196" y2="196"/><rect fill="none" height="6" style="stroke:#C82930;stroke-width:1.0;" width="6" x="30.5" y="206.6484"/><text fill="#000000" font-family="sans-serif" font-size="14" lengthAdjust="spacing" textLength="143" x="42.5" y="212.9951">Data to Send : String</text><rect fill="none" height="6" style="stroke:#C82930;stroke-width:1.0;" width="6" x="30.5" y="222.9453"/><text fill="#000000" font-family="sans-serif" font-size="14" lengthAdjust="spacing" textLength="113" x="42.5" y="229.292">notifier : NoType</text><rect fill="none" height="6" style="stroke:#C82930;stroke-width:1.0;" width="6" x="30.5" y="239.2422"/><text fill="#000000" font-family="sans-serif" font-size="14" lengthAdjust="spacing" textLength="108" x="42.5" y="245.5889">Qualifier : String</text><line style="stroke:#555555;stroke-width:0.5;" x1="23.5" x2="192.5" y1="252.8906" y2="252.8906"/><ellipse cx="33.5" cy="266.5391" fill="#84BE84" rx="3" ry="3" style="stroke:#038048;stroke-width:1.0;"/><text fill="#000000" font-family="sans-serif" font-size="14" lengthAdjust="spacing" text-decoration="underline" textLength="145" x="42.5" y="269.8857">Send Request Data()</text><ellipse cx="33.5" cy="282.8359" fill="#84BE84" rx="3" ry="3" style="stroke:#038048;stroke-width:1.0;"/><text fill="#000000" font-family="sans-serif" font-size="14" lengthAdjust="spacing" textLength="30" x="42.5" y="286.1826">Do()</text></g><!--class Message--><g id="elem_Message"><rect fill="#FFFFFF" height="48" id="Message" rx="2.5" ry="2.5" style="stroke:#555555;stroke-width:0.5;" width="95" x="60.5" y="41"/><rect fill="#808080" height="32" rx="2.5" ry="2.5" style="stroke:#808080;stroke-width:0.5;" width="95" x="60.5" y="41"/><rect fill="#808080" height="2.5" style="stroke:#808080;stroke-width:0.5;" width="95" x="60.5" y="70.5"/><rect fill="none" height="48" id="Message" rx="2.5" ry="2.5" style="stroke:#555555;stroke-width:0.5;" width="95" x="60.5" y="41"/><ellipse cx="75.5" cy="57" fill="#ADD1B2" rx="11" ry="11" style="stroke:#181818;stroke-width:1.0;"/><path d="M78.4688,62.6406 Q77.8906,62.9375 77.25,63.0781 Q76.6094,63.2344 75.9063,63.2344 Q73.4063,63.2344 72.0781,61.5938 Q70.7656,59.9375 70.7656,56.8125 Q70.7656,53.6875 72.0781,52.0313 Q73.4063,50.375 75.9063,50.375 Q76.6094,50.375 77.25,50.5313 Q77.9063,50.6875 78.4688,50.9844 L78.4688,53.7031 Q77.8438,53.125 77.25,52.8594 Q76.6563,52.5781 76.0313,52.5781 Q74.6875,52.5781 74,53.6563 Q73.3125,54.7188 73.3125,56.8125 Q73.3125,58.9063 74,59.9844 Q74.6875,61.0469 76.0313,61.0469 Q76.6563,61.0469 77.25,60.7813 Q77.8438,60.5 78.4688,59.9219 L78.4688,62.6406 Z " fill="#000000"/><text fill="#000000" font-family="sans-serif" font-size="14" lengthAdjust="spacing" textLength="63" x="89.5" y="61.8467">Message</text><line style="stroke:#555555;stroke-width:0.5;" x1="61.5" x2="154.5" y1="73" y2="73"/><line style="stroke:#555555;stroke-width:0.5;" x1="61.5" x2="154.5" y1="81" y2="81"/></g><!--reverse link Message to Request Data Msg--><g id="link_Message_Request Data Msg"><path codeLine="16" d="M108,107.17 C108,126.65 108,137.45 108,163.75 " fill="none" id="Message-backto-Request Data Msg" style="stroke:#181818;stroke-width:1.0;"/><polygon fill="none" points="108,89.17,102,107.17,114,107.17,108,89.17" style="stroke:#181818;stroke-width:1.0;"/></g><!--SRC=[ZP31JiCm38RlUGghN42eQ1SaL761JHKSXWJZ1RpMbAXfN68NX4hVdRHiwhHTS1Gfpl_bZsqX1OyDIOi5RQZ5WCe1CYErzMFMmDAXo3qMTHMuy-MINGJEyYbEC0ubXHroFSKnahFN7R2OuXXu88mU9n_UBCPb3cZbDcxOiYetKDf0XLhsfXXT87dqeg5hoAjSkKzdjzaBVNGa2YjKXBLK2VIcVxFaoW7IwJBQRSYNaC56W_NLB7jM6yznDF34hzyjpT9pXswlxP-9ejfYWBuXVUT8NKw-XnMSNvXPNN5CpM2IksASVnxxeoyEzL_bRROc4QmeWTkVDFrNRyQONm00]--></g></svg>