<?xml version="1.0" encoding="us-ascii" standalone="no"?><svg xmlns="http://www.w3.org/2000/svg" xmlns:xlink="http://www.w3.org/1999/xlink" contentStyleType="text/css" height="316px" preserveAspectRatio="none" style="width:1000px;height:316px;background:#FFFFFF;" version="1.1" viewBox="0 0 1000 316" width="1000px" zoomAndPan="magnify"><defs/><g><!--cluster Instruments.lvlib--><g id="cluster_Instruments.lvlib"><path d="M8.5,129 L140.5,129 A3.75,3.75 0 0 1 143,131.5 L150,151.2969 L990.5,151.2969 A2.5,2.5 0 0 1 993,153.7969 L993,306.98 A2.5,2.5 0 0 1 990.5,309.48 L8.5,309.48 A2.5,2.5 0 0 1 6,306.98 L6,131.5 A2.5,2.5 0 0 1 8.5,129 " fill="none" style="stroke:#000000;stroke-width:1.5;"/><line style="stroke:#000000;stroke-width:1.5;" x1="6" x2="150" y1="151.2969" y2="151.2969"/><text fill="#000000" font-family="sans-serif" font-size="14" font-weight="bold" lengthAdjust="spacing" textLength="131" x="10" y="143.9951">Instruments.lvlib</text></g><!--cluster Actor Framework.lvlibp--><g id="cluster_Actor Framework.lvlibp"><path d="M447.5,6 L631.5,6 A3.75,3.75 0 0 1 634,8.5 L641,28.2969 L641.5,28.2969 A2.5,2.5 0 0 1 644,30.7969 L644,102.5 A2.5,2.5 0 0 1 641.5,105 L447.5,105 A2.5,2.5 0 0 1 445,102.5 L445,8.5 A2.5,2.5 0 0 1 447.5,6 " fill="none" style="stroke:#000000;stroke-width:1.5;"/><line style="stroke:#000000;stroke-width:1.5;" x1="445" x2="641" y1="28.2969" y2="28.2969"/><text fill="#000000" font-family="sans-serif" font-size="14" font-weight="bold" lengthAdjust="spacing" textLength="183" x="449" y="20.9951">Actor Framework.lvlibp</text></g><!--class Measure Msg--><g id="elem_Measure Msg"><rect codeLine="8" fill="#FFFFFF" height="80.5938" id="Measure Msg" rx="2.5" ry="2.5" style="stroke:#555555;stroke-width:0.5;" width="136" x="841" y="188.44"/><rect fill="#808080" height="32" rx="2.5" ry="2.5" style="stroke:#808080;stroke-width:0.5;" width="136" x="841" y="188.44"/><rect fill="#808080" height="2.5" style="stroke:#808080;stroke-width:0.5;" width="136" x="841" y="217.94"/><rect codeLine="8" fill="none" height="80.5938" id="Measure Msg" rx="2.5" ry="2.5" style="stroke:#555555;stroke-width:0.5;" width="136" x="841" y="188.44"/><ellipse cx="860.95" cy="204.44" fill="#ADD1B2" rx="11" ry="11" style="stroke:#181818;stroke-width:1.0;"/><path d="M863.9188,210.0806 Q863.3406,210.3775 862.7,210.5181 Q862.0594,210.6744 861.3563,210.6744 Q858.8563,210.6744 857.5281,209.0338 Q856.2156,207.3775 856.2156,204.2525 Q856.2156,201.1275 857.5281,199.4713 Q858.8563,197.815 861.3563,197.815 Q862.0594,197.815 862.7,197.9713 Q863.3563,198.1275 863.9188,198.4244 L863.9188,201.1431 Q863.2938,200.565 862.7,200.2994 Q862.1063,200.0181 861.4813,200.0181 Q860.1375,200.0181 859.45,201.0963 Q858.7625,202.1588 858.7625,204.2525 Q858.7625,206.3463 859.45,207.4244 Q860.1375,208.4869 861.4813,208.4869 Q862.1063,208.4869 862.7,208.2213 Q863.2938,207.94 863.9188,207.3619 L863.9188,210.0806 Z " fill="#000000"/><text fill="#000000" font-family="sans-serif" font-size="14" lengthAdjust="spacing" textLength="93" x="876.05" y="209.2867">Measure Msg</text><line style="stroke:#555555;stroke-width:0.5;" x1="842" x2="976" y1="220.44" y2="220.44"/><line style="stroke:#555555;stroke-width:0.5;" x1="842" x2="976" y1="228.44" y2="228.44"/><ellipse cx="852" cy="242.0884" fill="#84BE84" rx="3" ry="3" style="stroke:#038048;stroke-width:1.0;"/><text fill="#000000" font-family="sans-serif" font-size="14" lengthAdjust="spacing" text-decoration="underline" textLength="110" x="861" y="245.4351">Send Measure()</text><ellipse cx="852" cy="258.3853" fill="#84BE84" rx="3" ry="3" style="stroke:#038048;stroke-width:1.0;"/><text fill="#000000" font-family="sans-serif" font-size="14" lengthAdjust="spacing" textLength="30" x="861" y="261.732">Do()</text></g><!--class Power Off Msg--><g id="elem_Power Off Msg"><rect codeLine="16" fill="#FFFFFF" height="80.5938" id="Power Off Msg" rx="2.5" ry="2.5" style="stroke:#555555;stroke-width:0.5;" width="142" x="664" y="188.44"/><rect fill="#808080" height="32" rx="2.5" ry="2.5" style="stroke:#808080;stroke-width:0.5;" width="142" x="664" y="188.44"/><rect fill="#808080" height="2.5" style="stroke:#808080;stroke-width:0.5;" width="142" x="664" y="217.94"/><rect codeLine="16" fill="none" height="80.5938" id="Power Off Msg" rx="2.5" ry="2.5" style="stroke:#555555;stroke-width:0.5;" width="142" x="664" y="188.44"/><ellipse cx="683.95" cy="204.44" fill="#ADD1B2" rx="11" ry="11" style="stroke:#181818;stroke-width:1.0;"/><path d="M686.9188,210.0806 Q686.3406,210.3775 685.7,210.5181 Q685.0594,210.6744 684.3563,210.6744 Q681.8563,210.6744 680.5281,209.0338 Q679.2156,207.3775 679.2156,204.2525 Q679.2156,201.1275 680.5281,199.4713 Q681.8563,197.815 684.3563,197.815 Q685.0594,197.815 685.7,197.9713 Q686.3563,198.1275 686.9188,198.4244 L686.9188,201.1431 Q686.2938,200.565 685.7,200.2994 Q685.1063,200.0181 684.4813,200.0181 Q683.1375,200.0181 682.45,201.0963 Q681.7625,202.1588 681.7625,204.2525 Q681.7625,206.3463 682.45,207.4244 Q683.1375,208.4869 684.4813,208.4869 Q685.1063,208.4869 685.7,208.2213 Q686.2938,207.94 686.9188,207.3619 L686.9188,210.0806 Z " fill="#000000"/><text fill="#000000" font-family="sans-serif" font-size="14" lengthAdjust="spacing" textLength="99" x="699.05" y="209.2867">Power Off Msg</text><line style="stroke:#555555;stroke-width:0.5;" x1="665" x2="805" y1="220.44" y2="220.44"/><line style="stroke:#555555;stroke-width:0.5;" x1="665" x2="805" y1="228.44" y2="228.44"/><ellipse cx="675" cy="242.0884" fill="#84BE84" rx="3" ry="3" style="stroke:#038048;stroke-width:1.0;"/><text fill="#000000" font-family="sans-serif" font-size="14" lengthAdjust="spacing" text-decoration="underline" textLength="116" x="684" y="245.4351">Send Power Off()</text><ellipse cx="675" cy="258.3853" fill="#84BE84" rx="3" ry="3" style="stroke:#038048;stroke-width:1.0;"/><text fill="#000000" font-family="sans-serif" font-size="14" lengthAdjust="spacing" textLength="30" x="684" y="261.732">Do()</text></g><!--class Request Data Msg--><g id="elem_Request Data Msg"><rect codeLine="24" fill="#FFFFFF" height="129.4844" id="Request Data Msg" rx="2.5" ry="2.5" style="stroke:#555555;stroke-width:0.5;" width="171" x="458.5" y="164"/><rect fill="#808080" height="32" rx="2.5" ry="2.5" style="stroke:#808080;stroke-width:0.5;" width="171" x="458.5" y="164"/><rect fill="#808080" height="2.5" style="stroke:#808080;stroke-width:0.5;" width="171" x="458.5" y="193.5"/><rect codeLine="24" fill="none" height="129.4844" id="Request Data Msg" rx="2.5" ry="2.5" style="stroke:#555555;stroke-width:0.5;" width="171" x="458.5" y="164"/><ellipse cx="478.45" cy="180" fill="#ADD1B2" rx="11" ry="11" style="stroke:#181818;stroke-width:1.0;"/><path d="M481.4188,185.6406 Q480.8406,185.9375 480.2,186.0781 Q479.5594,186.2344 478.8563,186.2344 Q476.3563,186.2344 475.0281,184.5938 Q473.7156,182.9375 473.7156,179.8125 Q473.7156,176.6875 475.0281,175.0313 Q476.3563,173.375 478.8563,173.375 Q479.5594,173.375 480.2,173.5313 Q480.8563,173.6875 481.4188,173.9844 L481.4188,176.7031 Q480.7938,176.125 480.2,175.8594 Q479.6063,175.5781 478.9813,175.5781 Q477.6375,175.5781 476.95,176.6563 Q476.2625,177.7188 476.2625,179.8125 Q476.2625,181.9063 476.95,182.9844 Q477.6375,184.0469 478.9813,184.0469 Q479.6063,184.0469 480.2,183.7813 Q480.7938,183.5 481.4188,182.9219 L481.4188,185.6406 Z " fill="#000000"/><text fill="#000000" font-family="sans-serif" font-size="14" lengthAdjust="spacing" textLength="128" x="493.55" y="184.8467">Request Data Msg</text><line style="stroke:#555555;stroke-width:0.5;" x1="459.5" x2="628.5" y1="196" y2="196"/><rect fill="none" height="6" style="stroke:#C82930;stroke-width:1.0;" width="6" x="466.5" y="206.6484"/><text fill="#000000" font-family="sans-serif" font-size="14" lengthAdjust="spacing" textLength="143" x="478.5" y="212.9951">Data to Send : String</text><rect fill="none" height="6" style="stroke:#C82930;stroke-width:1.0;" width="6" x="466.5" y="222.9453"/><text fill="#000000" font-family="sans-serif" font-size="14" lengthAdjust="spacing" textLength="113" x="478.5" y="229.292">notifier : NoType</text><rect fill="none" height="6" style="stroke:#C82930;stroke-width:1.0;" width="6" x="466.5" y="239.2422"/><text fill="#000000" font-family="sans-serif" font-size="14" lengthAdjust="spacing" textLength="108" x="478.5" y="245.5889">Qualifier : String</text><line style="stroke:#555555;stroke-width:0.5;" x1="459.5" x2="628.5" y1="252.8906" y2="252.8906"/><ellipse cx="469.5" cy="266.5391" fill="#84BE84" rx="3" ry="3" style="stroke:#038048;stroke-width:1.0;"/><text fill="#000000" font-family="sans-serif" font-size="14" lengthAdjust="spacing" text-decoration="underline" textLength="145" x="478.5" y="269.8857">Send Request Data()</text><ellipse cx="469.5" cy="282.8359" fill="#84BE84" rx="3" ry="3" style="stroke:#038048;stroke-width:1.0;"/><text fill="#000000" font-family="sans-serif" font-size="14" lengthAdjust="spacing" textLength="30" x="478.5" y="286.1826">Do()</text></g><!--class Send Command Msg--><g id="elem_Send Command Msg"><rect codeLine="35" fill="#FFFFFF" height="113.1875" id="Send Command Msg" rx="2.5" ry="2.5" style="stroke:#555555;stroke-width:0.5;" width="187" x="236.5" y="172.14"/><rect fill="#808080" height="32" rx="2.5" ry="2.5" style="stroke:#808080;stroke-width:0.5;" width="187" x="236.5" y="172.14"/><rect fill="#808080" height="2.5" style="stroke:#808080;stroke-width:0.5;" width="187" x="236.5" y="201.64"/><rect codeLine="35" fill="none" height="113.1875" id="Send Command Msg" rx="2.5" ry="2.5" style="stroke:#555555;stroke-width:0.5;" width="187" x="236.5" y="172.14"/><ellipse cx="256.45" cy="188.14" fill="#ADD1B2" rx="11" ry="11" style="stroke:#181818;stroke-width:1.0;"/><path d="M259.4188,193.7806 Q258.8406,194.0775 258.2,194.2181 Q257.5594,194.3744 256.8563,194.3744 Q254.3563,194.3744 253.0281,192.7338 Q251.7156,191.0775 251.7156,187.9525 Q251.7156,184.8275 253.0281,183.1713 Q254.3563,181.515 256.8563,181.515 Q257.5594,181.515 258.2,181.6713 Q258.8563,181.8275 259.4188,182.1244 L259.4188,184.8431 Q258.7938,184.265 258.2,183.9994 Q257.6063,183.7181 256.9813,183.7181 Q255.6375,183.7181 254.95,184.7963 Q254.2625,185.8588 254.2625,187.9525 Q254.2625,190.0463 254.95,191.1244 Q255.6375,192.1869 256.9813,192.1869 Q257.6063,192.1869 258.2,191.9213 Q258.7938,191.64 259.4188,191.0619 L259.4188,193.7806 Z " fill="#000000"/><text fill="#000000" font-family="sans-serif" font-size="14" lengthAdjust="spacing" textLength="144" x="271.55" y="192.9867">Send Command Msg</text><line style="stroke:#555555;stroke-width:0.5;" x1="237.5" x2="422.5" y1="204.14" y2="204.14"/><rect fill="none" height="6" style="stroke:#C82930;stroke-width:1.0;" width="6" x="244.5" y="214.7884"/><text fill="#000000" font-family="sans-serif" font-size="14" lengthAdjust="spacing" textLength="124" x="256.5" y="221.1351">Command : String</text><rect fill="none" height="6" style="stroke:#C82930;stroke-width:1.0;" width="6" x="244.5" y="231.0853"/><text fill="#000000" font-family="sans-serif" font-size="14" lengthAdjust="spacing" textLength="98" x="256.5" y="237.432">Value : Variant</text><line style="stroke:#555555;stroke-width:0.5;" x1="237.5" x2="422.5" y1="244.7338" y2="244.7338"/><ellipse cx="247.5" cy="258.3822" fill="#84BE84" rx="3" ry="3" style="stroke:#038048;stroke-width:1.0;"/><text fill="#000000" font-family="sans-serif" font-size="14" lengthAdjust="spacing" text-decoration="underline" textLength="161" x="256.5" y="261.7289">Send Send Command()</text><ellipse cx="247.5" cy="274.6791" fill="#84BE84" rx="3" ry="3" style="stroke:#038048;stroke-width:1.0;"/><text fill="#000000" font-family="sans-serif" font-size="14" lengthAdjust="spacing" textLength="30" x="256.5" y="278.0257">Do()</text></g><!--class Take Snapshot Msg--><g id="elem_Take Snapshot Msg"><rect codeLine="45" fill="#FFFFFF" height="80.5938" id="Take Snapshot Msg" rx="2.5" ry="2.5" style="stroke:#555555;stroke-width:0.5;" width="180" x="22" y="188.44"/><rect fill="#808080" height="32" rx="2.5" ry="2.5" style="stroke:#808080;stroke-width:0.5;" width="180" x="22" y="188.44"/><rect fill="#808080" height="2.5" style="stroke:#808080;stroke-width:0.5;" width="180" x="22" y="217.94"/><rect codeLine="45" fill="none" height="80.5938" id="Take Snapshot Msg" rx="2.5" ry="2.5" style="stroke:#555555;stroke-width:0.5;" width="180" x="22" y="188.44"/><ellipse cx="41.95" cy="204.44" fill="#ADD1B2" rx="11" ry="11" style="stroke:#181818;stroke-width:1.0;"/><path d="M44.9188,210.0806 Q44.3406,210.3775 43.7,210.5181 Q43.0594,210.6744 42.3563,210.6744 Q39.8563,210.6744 38.5281,209.0338 Q37.2156,207.3775 37.2156,204.2525 Q37.2156,201.1275 38.5281,199.4713 Q39.8563,197.815 42.3563,197.815 Q43.0594,197.815 43.7,197.9713 Q44.3563,198.1275 44.9188,198.4244 L44.9188,201.1431 Q44.2938,200.565 43.7,200.2994 Q43.1063,200.0181 42.4813,200.0181 Q41.1375,200.0181 40.45,201.0963 Q39.7625,202.1588 39.7625,204.2525 Q39.7625,206.3463 40.45,207.4244 Q41.1375,208.4869 42.4813,208.4869 Q43.1063,208.4869 43.7,208.2213 Q44.2938,207.94 44.9188,207.3619 L44.9188,210.0806 Z " fill="#000000"/><text fill="#000000" font-family="sans-serif" font-size="14" lengthAdjust="spacing" textLength="137" x="57.05" y="209.2867">Take Snapshot Msg</text><line style="stroke:#555555;stroke-width:0.5;" x1="23" x2="201" y1="220.44" y2="220.44"/><line style="stroke:#555555;stroke-width:0.5;" x1="23" x2="201" y1="228.44" y2="228.44"/><ellipse cx="33" cy="242.0884" fill="#84BE84" rx="3" ry="3" style="stroke:#038048;stroke-width:1.0;"/><text fill="#000000" font-family="sans-serif" font-size="14" lengthAdjust="spacing" text-decoration="underline" textLength="154" x="42" y="245.4351">Send Take Snapshot()</text><ellipse cx="33" cy="258.3853" fill="#84BE84" rx="3" ry="3" style="stroke:#038048;stroke-width:1.0;"/><text fill="#000000" font-family="sans-serif" font-size="14" lengthAdjust="spacing" textLength="30" x="42" y="261.732">Do()</text></g><!--class Message--><g id="elem_Message"><rect fill="#FFFFFF" height="48" id="Message" rx="2.5" ry="2.5" style="stroke:#555555;stroke-width:0.5;" width="95" x="496.5" y="41"/><rect fill="#808080" height="32" rx="2.5" ry="2.5" style="stroke:#808080;stroke-width:0.5;" width="95" x="496.5" y="41"/><rect fill="#808080" height="2.5" style="stroke:#808080;stroke-width:0.5;" width="95" x="496.5" y="70.5"/><rect fill="none" height="48" id="Message" rx="2.5" ry="2.5" style="stroke:#555555;stroke-width:0.5;" width="95" x="496.5" y="41"/><ellipse cx="511.5" cy="57" fill="#ADD1B2" rx="11" ry="11" style="stroke:#181818;stroke-width:1.0;"/><path d="M514.4688,62.6406 Q513.8906,62.9375 513.25,63.0781 Q512.6094,63.2344 511.9063,63.2344 Q509.4063,63.2344 508.0781,61.5938 Q506.7656,59.9375 506.7656,56.8125 Q506.7656,53.6875 508.0781,52.0313 Q509.4063,50.375 511.9063,50.375 Q512.6094,50.375 513.25,50.5313 Q513.9063,50.6875 514.4688,50.9844 L514.4688,53.7031 Q513.8438,53.125 513.25,52.8594 Q512.6563,52.5781 512.0313,52.5781 Q510.6875,52.5781 510,53.6563 Q509.3125,54.7188 509.3125,56.8125 Q509.3125,58.9063 510,59.9844 Q510.6875,61.0469 512.0313,61.0469 Q512.6563,61.0469 513.25,60.7813 Q513.8438,60.5 514.4688,59.9219 L514.4688,62.6406 Z " fill="#000000"/><text fill="#000000" font-family="sans-serif" font-size="14" lengthAdjust="spacing" textLength="63" x="525.5" y="61.8467">Message</text><line style="stroke:#555555;stroke-width:0.5;" x1="497.5" x2="590.5" y1="73" y2="73"/><line style="stroke:#555555;stroke-width:0.5;" x1="497.5" x2="590.5" y1="81" y2="81"/></g><!--reverse link Message to Measure Msg--><g id="link_Message_Measure Msg"><path codeLine="13" d="M609.9421,66.2543 C668.5321,67.9943 750.75,77.33 823,121 C849.78,137.18 871.74,164.9 886.77,188.04 " fill="none" id="Message-backto-Measure Msg" style="stroke:#181818;stroke-width:1.0;"/><polygon fill="none" points="591.95,65.72,609.764,72.2517,610.1202,60.257,591.95,65.72" style="stroke:#181818;stroke-width:1.0;"/></g><!--reverse link Message to Power Off Msg--><g id="link_Message_Power Off Msg"><path codeLine="21" d="M607.892,94.6551 C626.162,103.7551 630.45,107.45 647,121 C670.42,140.16 692.1,166.32 708.09,187.94 " fill="none" id="Message-backto-Power Off Msg" style="stroke:#181818;stroke-width:1.0;"/><polygon fill="none" points="591.78,86.63,605.217,100.0258,610.5671,89.2845,591.78,86.63" style="stroke:#181818;stroke-width:1.0;"/></g><!--reverse link Message to Request Data Msg--><g id="link_Message_Request Data Msg"><path codeLine="32" d="M544,107.17 C544,126.65 544,137.45 544,163.75 " fill="none" id="Message-backto-Request Data Msg" style="stroke:#181818;stroke-width:1.0;"/><polygon fill="none" points="544,89.17,538,107.17,550,107.17,544,89.17" style="stroke:#181818;stroke-width:1.0;"/></g><!--reverse link Message to Send Command Msg--><g id="link_Message_Send Command Msg"><path codeLine="42" d="M480.1969,96.2216 C462.2269,105.3916 458.06,108.61 441,121 C420.45,135.92 399.87,154.47 382.1,171.89 " fill="none" id="Message-backto-Send Command Msg" style="stroke:#181818;stroke-width:1.0;"/><polygon fill="none" points="496.23,88.04,477.4697,90.8772,482.9241,101.566,496.23,88.04" style="stroke:#181818;stroke-width:1.0;"/></g><!--reverse link Message to Take Snapshot Msg--><g id="link_Message_Take Snapshot Msg"><path codeLine="50" d="M478.2514,65.4364 C412.2714,66.2664 309.16,74.52 219,121 C188.21,136.86 160.73,164.75 141.32,188.04 " fill="none" id="Message-backto-Take Snapshot Msg" style="stroke:#181818;stroke-width:1.0;"/><polygon fill="none" points="496.25,65.21,478.176,59.4369,478.3269,71.4359,496.25,65.21" style="stroke:#181818;stroke-width:1.0;"/></g><!--SRC=[hP9DJyCm38Rl-HLMkO3Gq2v8QE82coOuZAzEtBtMwwAsSKbS9ZJstqdBlgjjbxggrDXlxCUk7GaOpCaL65581LeKjj1JBjMcEkNGpz2vHupIn79fuZvdNd0nhAqXOnkJNKbkQpkK3Dd8Ij2jxL3mHEXpD0hUTQj7xQY52__2X4KuXrXRYaIpKL6L1O9duyIMEHbnDzbtfYUz4Q4hBS789G4irC89YewMiCX9PXmluJea4yDATdcbje41-wDQgk0XgkOpzFLfpZRzprpurCvXGW7S_tOwvsehTPpnZUTauNKwFKUv4RRBkL__5Ea7VPNa10Oek86TQieyHwTs-fzJe_OW5AjDiWqR5ks__QB12uz_2jg6talCrh7rjICZs2LeTmgDtauDecRfSvvZjJm7WrZxcpFunAmax_z4gz78qIvtqxVRPGFyL9TZJ0b2WuMRiPnRpZrnkz1D3a_z1m00]--></g></svg>